<?xml version="1.0" standalone="no"?>
<!DOCTYPE svg PUBLIC "-//W3C//DTD SVG 20010904//EN"
 "http://www.w3.org/TR/2001/REC-SVG-20010904/DTD/svg10.dtd">
<svg version="1.0" xmlns="http://www.w3.org/2000/svg"
 width="260.000000pt" height="260.000000pt" viewBox="0 0 260.000000 260.000000"
 preserveAspectRatio="xMidYMid meet">
<metadata>
Created by potrace 1.11, written by Peter Selinger 2001-2013
</metadata>
<g transform="translate(0.000000,260.000000) scale(0.100000,-0.100000)"
fill="#000000" stroke="none">
<path d="M511 2454 c-190 -51 -319 -213 -366 -459 -20 -104 -20 -394 0 -508
39 -227 152 -383 323 -447 79 -30 216 -37 305 -16 178 42 306 166 352 341 28
109 32 105 -99 105 l-113 0 -13 -61 c-27 -125 -105 -197 -223 -206 -93 -8
-143 10 -202 70 -38 40 -56 69 -75 122 -22 64 -24 89 -28 303 -4 264 4 336 48
428 56 114 135 161 257 151 119 -9 189 -74 221 -204 l17 -73 113 0 112 0 0 28
c0 15 -7 54 -15 85 -46 175 -165 299 -330 342 -73 19 -212 18 -284 -1z"/>
<path d="M1460 849 l0 -711 308 4 c301 4 309 5 387 31 193 64 295 210 283 404
-8 132 -71 228 -185 280 l-55 25 44 25 c61 34 105 80 136 138 23 43 26 63 27
140 0 79 -3 97 -29 148 -36 74 -95 132 -171 168 -106 50 -178 59 -476 59
l-269 0 0 -711z m601 494 c26 -11 59 -37 75 -59 26 -34 29 -45 29 -115 0 -71
-2 -80 -31 -115 -57 -71 -135 -94 -320 -94 l-114 0 0 206 0 206 158 -4 c131
-3 165 -8 203 -25z m19 -584 c88 -40 124 -98 124 -199 0 -81 -28 -139 -83
-176 -66 -43 -121 -54 -278 -54 l-143 0 0 225 0 225 168 0 c146 0 173 -3 212
-21z"/>
</g>
</svg>
